<?xml version="1.0" standalone="no"?>
<!DOCTYPE svg PUBLIC "-//W3C//DTD SVG 20010904//EN"
 "http://www.w3.org/TR/2001/REC-SVG-20010904/DTD/svg10.dtd">
<svg version="1.0" xmlns="http://www.w3.org/2000/svg"
 width="795.000000pt" height="795.000000pt" viewBox="0 0 795.000000 795.000000"
 preserveAspectRatio="xMidYMid meet">
<metadata>
Created by potrace 1.14, written by Peter Selinger 2001-2017
</metadata>
<g transform="translate(0.000000,795.000000) scale(0.100000,-0.100000)"
fill="#000000" stroke="none">
<path d="M0 3975 l0 -3975 3975 0 3975 0 0 3975 0 3975 -3975 0 -3975 0 0
-3975z m7640 0 l0 -3605 -3610 0 -3610 0 0 3605 0 3605 3610 0 3610 0 0 -3605z"/>
<path d="M1050 3980 l0 -2970 2975 0 2975 0 0 2970 0 2970 -2975 0 -2975 0 0
-2970z m2780 1926 c232 -51 386 -151 473 -306 63 -114 67 -143 67 -527 l0
-343 -279 0 -278 0 -6 268 c-7 343 -21 393 -130 449 -45 23 -65 27 -147 27
-107 1 -155 -17 -203 -74 -58 -68 -57 -49 -57 -1075 0 -1040 -2 -1008 63
-1082 49 -55 101 -74 206 -74 105 0 157 18 200 67 54 61 62 110 68 422 l6 282
279 0 278 0 0 -319 c0 -407 -12 -481 -99 -612 -85 -127 -225 -216 -421 -267
-97 -25 -119 -27 -305 -27 -203 0 -245 5 -415 52 -167 46 -321 166 -386 300
-67 139 -66 103 -61 1248 4 1142 1 1094 70 1240 92 193 322 334 593 364 116
13 401 5 484 -13z m1844 13 c272 -33 481 -165 574 -361 22 -46 45 -101 51
-123 6 -24 11 -133 11 -268 l0 -227 -287 2 -288 3 -5 200 c-3 117 -10 211 -17
226 -15 35 -80 87 -123 99 -54 15 -166 12 -208 -6 -101 -42 -136 -119 -136
-299 0 -212 33 -275 199 -388 39 -26 81 -55 95 -64 14 -10 120 -82 235 -162
116 -80 233 -163 260 -185 150 -121 263 -276 291 -402 23 -105 16 -689 -10
-779 -31 -109 -76 -185 -156 -265 -91 -91 -180 -139 -330 -178 -99 -25 -117
-27 -330 -27 -214 1 -230 2 -330 29 -228 60 -371 166 -451 333 -64 133 -69
170 -69 501 l0 292 289 0 290 0 3 -277 3 -278 27 -46 c50 -86 185 -128 316
-100 153 32 187 117 180 438 -7 274 -23 301 -300 486 -536 359 -562 378 -629
466 -62 83 -101 162 -131 271 -21 76 -23 106 -23 290 0 184 2 214 24 295 45
170 125 287 254 369 182 116 456 168 721 135z m-3384 -1604 c0 -1464 -1 -1545
-17 -1546 -20 -1 -405 -1 -500 0 l-63 1 0 1545 0 1545 290 0 290 0 0 -1545z
m-450 -1922 c1 -5 13 -80 28 -169 l27 -160 -35 6 c-26 4 -36 11 -38 28 -5 32
-42 30 -42 -3 0 -22 -4 -25 -35 -25 -41 0 -41 1 -20 100 8 39 17 90 20 113 16
123 13 117 56 117 21 0 39 -3 39 -7z m496 -18 c10 -14 14 -53 14 -142 0 -154
-6 -163 -105 -163 l-65 0 0 166 0 166 71 -4 c55 -3 74 -8 85 -23z m464 5 c18
-18 20 -33 20 -143 0 -86 -4 -129 -13 -141 -14 -20 -73 -33 -124 -28 l-33 3 0
165 0 164 65 0 c52 0 69 -4 85 -20z m390 -145 l0 -165 -35 0 -35 0 0 165 0
165 35 0 35 0 0 -165z m450 145 c12 -12 20 -33 20 -55 0 -33 -2 -35 -34 -35
-30 0 -35 4 -38 25 -3 29 -21 35 -26 9 -2 -9 17 -35 47 -63 49 -45 51 -50 51
-99 0 -69 -22 -92 -87 -92 -63 0 -83 19 -83 82 l0 49 33 -3 c28 -3 33 -7 37
-36 6 -42 24 -46 28 -7 2 25 -4 35 -37 60 -22 17 -45 42 -52 58 -15 35 -5 98
18 114 27 21 100 16 123 -7z m805 -17 c3 -21 10 -56 15 -78 13 -52 30 -164 30
-193 0 -20 -4 -23 -32 -20 -25 2 -34 8 -36 26 -5 30 -30 28 -38 -3 -5 -21 -12
-25 -41 -25 -32 0 -34 2 -29 28 3 15 15 82 26 149 26 155 25 153 66 153 31 0
34 -3 39 -37z m484 18 c16 -16 19 -35 19 -147 1 -71 -3 -135 -7 -143 -11 -17
-61 -27 -117 -23 l-44 4 0 164 0 164 65 0 c50 0 69 -4 84 -19z m436 8 c6 -8
54 -286 55 -311 0 -5 -15 -8 -34 -8 -28 0 -35 4 -38 22 -4 33 -38 37 -38 5 0
-21 -6 -25 -35 -29 -32 -4 -35 -2 -34 22 0 14 7 59 15 100 8 41 19 105 25 143
l11 67 34 0 c18 0 36 -5 39 -11z m485 1 c24 -13 36 -72 22 -116 -6 -20 -6 -36
-1 -40 10 -6 12 -104 3 -129 -9 -22 -53 -43 -84 -40 -14 1 -37 3 -52 4 l-28 1
0 165 0 165 61 0 c33 0 69 -5 79 -10z m467 -130 c30 -186 30 -190 -6 -190 -22
0 -30 6 -35 25 -4 14 -13 25 -21 25 -8 0 -17 -11 -21 -25 -5 -21 -12 -25 -40
-25 -19 0 -34 2 -34 5 0 3 7 38 14 78 8 40 20 101 26 137 19 117 16 112 58
108 l37 -3 22 -135z"/>
<path d="M1796 2205 c-3 -8 -1 -15 4 -15 6 0 10 7 10 15 0 8 -2 15 -4 15 -2 0
-6 -7 -10 -15z"/>
<path d="M2250 2235 c0 -87 3 -105 15 -105 12 0 15 18 15 105 0 87 -3 105 -15
105 -12 0 -15 -18 -15 -105z"/>
<path d="M2720 2235 c0 -87 3 -105 15 -105 12 0 15 18 15 105 0 87 -3 105 -15
105 -12 0 -15 -18 -15 -105z"/>
<path d="M4402 2215 c0 -16 2 -22 5 -12 2 9 2 23 0 30 -3 6 -5 -1 -5 -18z"/>
<path d="M4850 2310 c0 -20 5 -30 15 -30 10 0 15 10 15 30 0 20 -5 30 -15 30
-10 0 -15 -10 -15 -30z"/>
<path d="M4850 2170 c0 -34 3 -41 18 -38 12 2 17 13 17 38 0 25 -5 36 -17 38
-15 3 -18 -4 -18 -38z"/>
<path d="M5320 2205 c0 -8 4 -15 10 -15 5 0 7 7 4 15 -4 8 -8 15 -10 15 -2 0
-4 -7 -4 -15z"/>
<path d="M5770 2311 c0 -25 4 -31 21 -31 16 0 20 5 17 27 -2 17 -10 29 -20 31
-14 3 -18 -3 -18 -27z"/>
<path d="M5770 2169 c0 -33 3 -40 18 -37 12 2 18 14 20 41 3 32 0 37 -17 37
-18 0 -21 -6 -21 -41z"/>
<path d="M6252 2215 c0 -16 2 -22 5 -12 2 9 2 23 0 30 -3 6 -5 -1 -5 -18z"/>
</g>
</svg>
